<svg xmlns="http://www.w3.org/2000/svg" width="48" height="48" viewBox="0 0 48 48" fill="none">
  <rect width="48" height="48" rx="8" fill="#3B82F6"/>
  <path d="M27.1211 19.2797C27.1211 19.6739 26.918 19.9981 26.5118 20.2523C26.1177 20.5065 25.5624 20.6336 24.8459 20.6336C24.1295 20.6336 23.5742 20.5065 23.1801 20.2523C22.786 19.9981 22.5889 19.6739 22.5889 19.2797C22.5889 18.8856 22.786 18.5614 23.1801 18.3072C23.5742 18.0531 24.1295 17.926 24.8459 17.926C25.5624 17.926 26.1177 18.0531 26.5118 18.3072C26.918 18.5614 27.1211 18.8856 27.1211 19.2797Z" fill="white"/>
  <path d="M13 24C13 17.9249 17.9249 13 24 13C30.0751 13 35 17.9249 35 24C35 30.0751 30.0751 35 24 35C17.9249 35 13 30.0751 13 24ZM24 15.5C19.3056 15.5 15.5 19.3056 15.5 24C15.5 28.6944 19.3056 32.5 24 32.5C28.6944 32.5 32.5 28.6944 32.5 24C32.5 19.3056 28.6944 15.5 24 15.5Z" fill="white"/>
  <path d="M35 24C35 30.0751 30.0751 35 24 35C17.9249 35 13 30.0751 13 24C13 17.9249 17.9249 13 24 13C30.0751 13 35 17.9249 35 24ZM24 32.5C28.6944 32.5 32.5 28.6944 32.5 24C32.5 19.3056 28.6944 15.5 24 15.5C19.3056 15.5 15.5 19.3056 15.5 24C15.5 28.6944 19.3056 32.5 24 32.5Z" fill="white" fill-opacity="0.5"/>
  <path d="M31.9 18.1L36 22.2M31.9 18.1L27.8 22.2M31.9 18.1L31.9 24.1" stroke="white" stroke-width="2" stroke-linecap="round"/>
  <path d="M16.1 29.9L12 25.8M16.1 29.9L20.2 25.8M16.1 29.9L16.1 23.9" stroke="white" stroke-width="2" stroke-linecap="round"/>
</svg> 