<svg xmlns="http://www.w3.org/2000/svg" fill="none" viewBox="0 0 212 102"><g filter="url(#SignInChatsIcon_svg__a)"><rect width="128" height="32" x="12" y=".389" fill="#333232" rx="6" shape-rendering="crispEdges"/><rect width="127.5" height="31.5" x="12.25" y=".639" stroke="#4F4F4F" stroke-width=".5" rx="5.75" shape-rendering="crispEdges"/><rect width="20" height="20" x="18" y="6.389" fill="#fff" rx="4"/><path fill="#764B99" d="m32.015 14.248-2.625-2.625a.37.37 0 0 0-.265-.11h-4.5a.75.75 0 0 0-.75.75v8.25a.75.75 0 0 0 .75.75h6.75a.75.75 0 0 0 .75-.75v-6a.38.38 0 0 0-.11-.265m-2.515 4.39h-3a.375.375 0 1 1 0-.75h3a.375.375 0 0 1 0 .75m0-1.5h-3a.375.375 0 1 1 0-.75h3a.375.375 0 0 1 0 .75m-.375-2.624V12.45l2.063 2.063z"/><rect width="73" height="6" x="44" y="9.389" fill="#5B5B5B" rx="2"/><rect width="24" height="4" x="44" y="19.389" fill="#5B5B5B" rx="1"/><rect width="18" height="4" x="72" y="19.389" fill="#5B5B5B" rx="1"/></g><g filter="url(#SignInChatsIcon_svg__b)"><rect width="128" height="32" x="30.52" y="45.612" fill="#333232" rx="6" shape-rendering="crispEdges"/><rect width="127.5" height="31.5" x="30.77" y="45.862" stroke="#4F4F4F" stroke-width=".5" rx="5.75" shape-rendering="crispEdges"/><rect width="20" height="20" x="36.52" y="51.612" fill="#fff" rx="4"/><path fill="#F6BB39" d="m50.535 59.472-2.625-2.625a.37.37 0 0 0-.265-.11h-4.5a.75.75 0 0 0-.75.75v8.25a.75.75 0 0 0 .75.75h6.75a.75.75 0 0 0 .75-.75v-6a.37.37 0 0 0-.11-.265m-2.515 4.39h-3a.375.375 0 0 1 0-.75h3a.375.375 0 1 1 0 .75m0-1.5h-3a.375.375 0 0 1 0-.75h3a.375.375 0 1 1 0 .75m-.376-2.625v-2.062l2.063 2.062z"/><rect width="80.344" height="6" x="62.52" y="54.612" fill="#5B5B5B" rx="2"/><rect width="14.038" height="4" x="62.52" y="64.612" fill="#5B5B5B" rx="1"/><rect width="28.123" height="4" x="80.558" y="64.612" fill="#5B5B5B" rx="1"/></g><g filter="url(#SignInChatsIcon_svg__c)"><rect width="112" height="32" x="88" y="26.389" fill="#333232" rx="6" shape-rendering="crispEdges"/><rect width="111.5" height="31.5" x="88.25" y="26.639" stroke="#4F4F4F" stroke-width=".5" rx="5.75" shape-rendering="crispEdges"/><rect width="20" height="20" x="94" y="32.389" fill="#fff" rx="4"/><path fill="#46D8B6" d="m108.015 40.248-2.625-2.625a.38.38 0 0 0-.265-.11h-4.5a.75.75 0 0 0-.75.75v8.25a.75.75 0 0 0 .75.75h6.75a.75.75 0 0 0 .75-.75v-6q0-.074-.028-.143a.4.4 0 0 0-.082-.122m-2.515 4.39h-3a.375.375 0 0 1 0-.75h3a.375.375 0 0 1 0 .75m0-1.5h-3a.375.375 0 0 1 0-.75h3a.375.375 0 0 1 0 .75m-.375-2.624V38.45l2.063 2.063z"/><rect width="64.336" height="6" x="120" y="35.389" fill="#5B5B5B" rx="2"/><rect width="32.565" height="4" x="120" y="45.389" fill="#5B5B5B" rx="1"/><rect width="18" height="4" x="156.565" y="45.389" fill="#5B5B5B" rx="1"/></g><defs><filter id="SignInChatsIcon_svg__a" width="152" height="56" x="0" y=".389" color-interpolation-filters="sRGB" filterUnits="userSpaceOnUse"><feFlood flood-opacity="0" result="BackgroundImageFix"/><feColorMatrix in="SourceAlpha" result="hardAlpha" values="0 0 0 0 0 0 0 0 0 0 0 0 0 0 0 0 0 0 127 0"/><feMorphology in="SourceAlpha" radius="2" result="effect1_dropShadow_120_1961"/><feOffset dy="4"/><feGaussianBlur stdDeviation="3"/><feComposite in2="hardAlpha" operator="out"/><feColorMatrix values="0 0 0 0 0.0627451 0 0 0 0 0.0941176 0 0 0 0 0.156863 0 0 0 0.03 0"/><feBlend in2="BackgroundImageFix" result="effect1_dropShadow_120_1961"/><feColorMatrix in="SourceAlpha" result="hardAlpha" values="0 0 0 0 0 0 0 0 0 0 0 0 0 0 0 0 0 0 127 0"/><feMorphology in="SourceAlpha" radius="4" result="effect2_dropShadow_120_1961"/><feOffset dy="12"/><feGaussianBlur stdDeviation="8"/><feComposite in2="hardAlpha" operator="out"/><feColorMatrix values="0 0 0 0 0.0627451 0 0 0 0 0.0941176 0 0 0 0 0.156863 0 0 0 0.08 0"/><feBlend in2="effect1_dropShadow_120_1961" result="effect2_dropShadow_120_1961"/><feBlend in="SourceGraphic" in2="effect2_dropShadow_120_1961" result="shape"/></filter><filter id="SignInChatsIcon_svg__b" width="152" height="56" x="18.52" y="45.612" color-interpolation-filters="sRGB" filterUnits="userSpaceOnUse"><feFlood flood-opacity="0" result="BackgroundImageFix"/><feColorMatrix in="SourceAlpha" result="hardAlpha" values="0 0 0 0 0 0 0 0 0 0 0 0 0 0 0 0 0 0 127 0"/><feMorphology in="SourceAlpha" radius="2" result="effect1_dropShadow_120_1961"/><feOffset dy="4"/><feGaussianBlur stdDeviation="3"/><feComposite in2="hardAlpha" operator="out"/><feColorMatrix values="0 0 0 0 0.0627451 0 0 0 0 0.0941176 0 0 0 0 0.156863 0 0 0 0.03 0"/><feBlend in2="BackgroundImageFix" result="effect1_dropShadow_120_1961"/><feColorMatrix in="SourceAlpha" result="hardAlpha" values="0 0 0 0 0 0 0 0 0 0 0 0 0 0 0 0 0 0 127 0"/><feMorphology in="SourceAlpha" radius="4" result="effect2_dropShadow_120_1961"/><feOffset dy="12"/><feGaussianBlur stdDeviation="8"/><feComposite in2="hardAlpha" operator="out"/><feColorMatrix values="0 0 0 0 0.0627451 0 0 0 0 0.0941176 0 0 0 0 0.156863 0 0 0 0.08 0"/><feBlend in2="effect1_dropShadow_120_1961" result="effect2_dropShadow_120_1961"/><feBlend in="SourceGraphic" in2="effect2_dropShadow_120_1961" result="shape"/></filter><filter id="SignInChatsIcon_svg__c" width="136" height="56" x="76" y="22.389" color-interpolation-filters="sRGB" filterUnits="userSpaceOnUse"><feFlood flood-opacity="0" result="BackgroundImageFix"/><feColorMatrix in="SourceAlpha" result="hardAlpha" values="0 0 0 0 0 0 0 0 0 0 0 0 0 0 0 0 0 0 127 0"/><feMorphology in="SourceAlpha" radius="2" result="effect1_dropShadow_120_1961"/><feOffset dy="4"/><feGaussianBlur stdDeviation="3"/><feComposite in2="hardAlpha" operator="out"/><feColorMatrix values="0 0 0 0 0.0627451 0 0 0 0 0.0941176 0 0 0 0 0.156863 0 0 0 0.03 0"/><feBlend in2="BackgroundImageFix" result="effect1_dropShadow_120_1961"/><feColorMatrix in="SourceAlpha" result="hardAlpha" values="0 0 0 0 0 0 0 0 0 0 0 0 0 0 0 0 0 0 127 0"/><feMorphology in="SourceAlpha" radius="4" result="effect2_dropShadow_120_1961"/><feOffset dy="8"/><feGaussianBlur stdDeviation="8"/><feComposite in2="hardAlpha" operator="out"/><feColorMatrix values="0 0 0 0 0.116781 0 0 0 0 0.116781 0 0 0 0 0.116781 0 0 0 0.6 0"/><feBlend in2="effect1_dropShadow_120_1961" result="effect2_dropShadow_120_1961"/><feBlend in="SourceGraphic" in2="effect2_dropShadow_120_1961" result="shape"/></filter></defs></svg>